# xmcd CD database file
#
# Track frame offsets:
#	150
#	11016
#	22469
#	32294
#	46456
#	57780
#	70797
#	85569
#	94179
#	103826
#	116656
#	127614
#
# Disc length: 1813 seconds
#
# Revision: 0
# Processed by: cddbd v1.5.2PL0 Copyright (c) Steve Scherf et al.
# Submitted via: CDex 1.51
#
DISCID=9207130c
DTITLE=Various Artist - Country and Western Classics
DYEAR=2001
DGENRE=Country
TTITLE0=Willie Nelson - Touch Me (Live)
TTITLE1=Patsy Cline - Walkin' After Midnight
TTITLE2=George Jones - Rain Keeps A-Fallin'
TTITLE3=Frankie Laine - Don't Fence Me In
TTITLE4=Kitty Wells - On the Lonely Side of Town (Live)
TTITLE5=Glen Campbell - Rhinestone Cowboy (Live)
TTITLE6=Roy Clark - Somewhere Between Love and Tomorrow
TTITLE7=Webb Pierce - Slowly (Live)
TTITLE8=Faron Young - Hello Walls
TTITLE9=Dottie West - I Fall To Pieces
TTITLE10=Buck Owens - Above and Beyond
TTITLE11=Waylon Jennings - Abilene
EXTD=YEAR: 2001
EXTT0=
EXTT1=
EXTT2=
EXTT3=
EXTT4=
EXTT5=
EXTT6=
EXTT7=
EXTT8=
EXTT9=
EXTT10=
EXTT11=
PLAYORDER=
